<svg xmlns="http://www.w3.org/2000/svg" viewBox="0 0 551.26 223.84"><defs><style>.cls-1{fill:#fff;}.cls-2{fill:#e63b11;}</style></defs><g id="Layer_2" data-name="Layer 2"><g id="Camada_1" data-name="Camada 1"><path class="cls-1" d="M458.72,68.77c1-1.74,3.21-3.48,8-1.89,6.69,2.2,9.68,6.88,8.08,9.24-1.23,2.48-6.55,1.14-9.52.16a11.49,11.49,0,0,1-5-3.69S458.24,70.25,458.72,68.77Z"/><path class="cls-1" d="M55,47.06c15-8.72,21.29,5.82,20.39,13.08C74,67.41,67.23,74.32,67.23,74.32s-9.06,7.26-1.81,10.17C71.31,86.67,83.09,75,85.81,64.87c2.71-11.63.45-30.16-21.29-30.89,0,0-31.71-.36-43.95,24.71-6.79,14.54-5.88,33.8,1.82,46.88,5.43,9.45,41.22,51.6,34.42,78.85-5.43,22.53-61.6,9.81-36.24-33.07,0,0,5.89-12.35.91-12.72-3.17,0-7.7.73-10,3.27C10.15,144.09-1.62,154.26.19,183.69c.9,7.27,18.12,18.9,34,21.8s44.4-5.45,52.55-28.34c4.53-19.26-21.74-56.32-29.9-68.31C41,85.22,40.05,55.42,55,47.06Z"/><path class="cls-1" d="M306.84,105.41a31.25,31.25,0,0,1-6.65,11c0-11-2.74-16-2.74-16-4.69-14.46-20.33-15.64-20.33-15.64-15.64-1.56-24.25,16-24.25,16a58.08,58.08,0,0,0-7.16,21.19c-3.45.14-6.85.42-10,.71a84.56,84.56,0,0,0,1.18-14.07c.39-14.86-13.69-27-25-24.25-5.86,1.18-11.34,7.82-16,14.86,2.74-15.64,5.09-29.71,5.48-35.58,1.56-12.91,2.34-22.29,1.95-25.81-1.56-6.64-3.91-7.82-8.21-10.94s-5.08,0-9,5.08c-3.52,4.69-10.56,41.44-10.56,41.44-.39,9-2.74,28.16-2.74,37.15-.19,4.33-.89,13.63-1.53,22.68-11.2,37.38-21.54,31.28-21.54,31.28-3.12-3.13,2.35-36.36,5.09-48.49,5.08-19.94,1.17-21.11,1.17-27S151.22,78.82,145,76.47c-8.21-3.52-10.56,6.65-10.56,6.65a17.24,17.24,0,0,1-.78,3.91l-3.13-2.74s-18.37-4.69-34.8,24.64c-14.46,25.8-7,60.6,12.12,64.51,9.78,2,16.82-9.77,20.73-21.11.39,1.56.39,2.74.78,3.91,2,10.17,7.82,14.08,11.34,16,3.52,1.56,5.47,1.17,5.47,1.17,11.62,0,18.85-7.82,23.87-17.75.15,8.05,1.59,8.8,2.33,9.54.78,1.18.78,3.13,3.13,6.26a8.39,8.39,0,0,0,7.43,4.3c2,0,3.52-2.74,3.52-2.74,1.17-.78,1.56-2.34,2-4.3,1.18.39,2.74.39,4.69.78,15.25,2.35,33.63-16.81,40.67-40.66,4.43-.82,8.36-1.3,11.51-1.6-.9,21.23,9.84,40.68,27.19,43.44,22.29,3.51,26.6-36,27.38-42.62v-.79c3.91-3.52,7-9.38,9-12.51,3.13-5.08,2.74-9.77,1.17-11C308.79,103.06,306.84,105.41,306.84,105.41Zm-177.13,2.34c-.39,1.18-.39,2.35-.78,3.52a104.82,104.82,0,0,0-1.17,16.43l-.4-.4s-3.12,37.54-14.07,38.71c0,0-8.6-3.52-3.52-30.1,5.08-26.2,11.34-41.84,14.47-42.23C127,93.29,130.1,102.67,129.71,107.75Zm68.82,50.84s-5.08,5.08-6.26-2.74c-1.56-9,10.17-15.64,10.17-15.64a71.27,71.27,0,0,1,7.82-3.91C205.18,151.16,198.53,158.59,198.53,158.59Zm15.25-35.2-1.17,4.7c-10.17,3.91-18,8.6-23.07,12.9.39-3.91,1.17-8.21,2-12.9,4.69-19.55,15.25-32.85,18-34.8S218.47,99.93,213.78,123.39Zm77.8,7.43c0,10.56-1.95,30.89-12.51,31.67,0,0-12.9-3.9-8.21-32.84,0,0,4.69-29.33,14.86-23.46,0,0,4.69,4.3,5.86,15.64-2.34.39-3.51,0-3.51-.78,0,0-1.57-2.74-3.52-3.13a3.89,3.89,0,0,0-3.91.39c-.78.78-.78,2.74-.78,3.52C279.07,129.65,285.72,130.82,291.58,130.82Z"/><path class="cls-1" d="M372.52,80.77c-7-2.73-14.08,2-20.72,12.12-5.09,8.22-11.73,27-16,41.06-.4-5.08,1.56-14.07,2.34-17.59,3.52-14.08,3.52-18,3.52-23.86s-5.86-12.12-10.95-12.9C324,78.43,320.52,89,320.52,89c-2,4.3-3.13,8.21-4.3,20.33-2,14.46-2.74,34.8-.79,45,0,0,1.57,7.82,5.09,10.17,3.91,2.35,3.52,3.52,6.25,3.91,2.35.39,6.65-2,7.43-7,2.74-9.38,12.51-40.66,16.43-51.61,1.95-5.48,10.16-21.9,13.29-17.6,1.17,1.18,2.74,1.18-2.35,11.73a12.19,12.19,0,0,0-.78,3.91c0,1.57,0,2.74.39,3.13a6.37,6.37,0,0,0,2.35,2.35c1.17.39,1.56,1.17,5.08,0C372.13,111.66,378.78,101.5,380,96,381.91,85.86,377.6,82.73,372.52,80.77Z"/><path class="cls-1" d="M550.07,103.84c-1.17-.78-3.13,1.57-3.13,1.57a31.11,31.11,0,0,1-6.64,11c0-11-2.74-16-2.74-16-4.69-14.46-20.33-15.64-20.33-15.64-15.64-1.56-24.25,16-24.25,16a58.43,58.43,0,0,0-7.56,33c-11.52,36.81-21.76,30.77-21.76,30.77-3.13-3.13,2.35-35.58,5.08-47.7,3.13-14.08,1.18-18,1.18-23.86,0-6.25-5.87-12.51-10.95-13.29-6.65-.78-10.17,10.17-10.17,10.17-1.56,3.91-3.52,7.43-5.47,21.5a144.4,144.4,0,0,0-1.61,22.54c-10.74,27.41-24.59,22.82-24.59,22.82-5.86-.39-11.73-2-16.42-15.25a39.81,39.81,0,0,1-2.35-14.47c5.87.39,11.34-3.13,14.47-6.64,1.95-2.35,3.91-3.91,7-16.43,3.52-12.9-3.52-17.59-3.52-17.59s-18.38-9-34.8,20.33c0,0-12.12,19.94-2.35,41.45,8.6,18.38,23.85,16.42,26.2,16.81a51.79,51.79,0,0,0,8.21.78c13.78-.24,22.75-8.07,28.59-18.42a82.76,82.76,0,0,0,1.13,9c2.34,10.17,7.82,14.08,11.73,16,3.52,1.56,5.47,1.17,5.47,1.17,15,0,22.44-13,27.39-26.73,4.12,12.57,12.84,22.13,24.61,24,22.29,3.51,26.59-36,27.38-42.62v-.79c3.91-3.52,7-9.38,9-12.51C552,109.71,551.64,105,550.07,103.84Zm-149.75,9.39c3.91-14.08,7.43-17.21,9.77-17.6a3.81,3.81,0,0,1,3.52,3.13s.78,5.08-3.91,14.86a10.78,10.78,0,0,1-10.95,5.86A58.34,58.34,0,0,1,400.32,113.23Zm131.37,17.59c0,10.56-2,30.89-12.51,31.67,0,0-12.9-3.9-8.21-32.84,0,0,4.69-29.33,14.86-23.46,0,0,4.69,4.3,5.86,15.64-2.34.39-3.51,0-3.51-.78,0,0-1.57-2.74-3.52-3.13a3.89,3.89,0,0,0-3.91.39c-.79.78-.79,2.74-.79,3.52C519.18,129.65,525.83,130.82,531.69,130.82Z"/><path class="cls-2" d="M435.11,68.65c7.68-2.93,14.78-11.87,12.31-22.4-2.95-12.57-19.19-17.84-28.51-11.12-1.26.91-4.28-2.28-2.89-3.32,11.06-8.44,29-2.82,34.3,12.46,4.56,13-1.54,27.69-12.82,29C435.89,73.42,433.18,69.39,435.11,68.65ZM378.74,52.06c.93,1.54,4.24,1.58,3.12-.75C376.61,40.58,385,27.15,397.34,27c15.59.44,18.85,19.51,9.46,28.47-1.32,1.28,1.64,3.85,3,2.81,12-8.93,7-27.11-6.27-33.28C386.55,17.34,369.37,36.91,378.74,52.06ZM344.08,24.37c-9.13,11.26-6.14,26.35,3.73,31.86,1.87,1.07,4.65-1,2.69-2.63-6.47-5.36-8.27-15.08-2.43-24.23,6.82-10.69,24.44-12.72,30.28-2.52,1,1.66,4.45,1.6,3.34-.87C376.11,13.2,354.76,10.83,344.08,24.37ZM355.34,58c25.46-.08,50.77,5,74.63,13.4,2.81,1,2-2.43-.18-3.35-23.61-9.88-49.11-13.78-74.68-12.91C352.32,55.22,353.1,58,355.34,58Zm91.11,14.84c-2.21.33-4.43.67-6.64,1.14s.81,3.31,2.16,3.33h1.62c-.45,1.11-.88,2.23-1.32,3.35-32-14.78-63-22.15-102.5-18.7,0-1.32,0-2.63-.07-3.94.56.23,1.11.47,1.68.69,1.4.55,5.21-1.16,3.19-2.4-1.81-1.11-3.66-2.11-5.53-3.07-1-.51-4.3.07-4.35,1.92-.1,3.11-.76,9.31-.82,12.42,0,1.26,1.34,1.47,2.48,1.33,35.58-4.62,62.33-3.47,107.07,20.06.81.42,2.42.52,2.78-.44,1.09-2.9,2.73-8.91,3.7-11.89C450.54,74.66,448,72.58,446.45,72.81ZM395,4a7.48,7.48,0,0,1,10.26-3c3.37,1.92,5.48,6.64,3.85,10.3C405.06,20.27,390,12.46,395,4Zm3.43,2.4c-.57.9-.14,4.32,2.11,4.69a4.44,4.44,0,0,0,4.59-2.61c.7-1.71.13-4.15-1.9-4.54A4.84,4.84,0,0,0,398.42,6.37ZM415.48,19c-2,.26-.19,2.86.88,3.27,3.29,1.27,5.15-2.11,3.59-5a5.71,5.71,0,0,0-7.3-2.71c-5.48,2.66-3.48,11.28,2.12,13,2.17.67,1.9-1.92.4-2.83-1.93-1.15-2.86-3.21-1.73-5.26.48-.87,1.79-2.14,2.9-1.86C417.62,17.82,416.23,18.87,415.48,19ZM389.86,11c-1.85-1.72-5.38-2.46-7.46-.17-2.35,2.59,0,6.34,3.11,6.29,2.15,0,1.08-2.42-.05-2.94-.74-.34.94-1.65,1.64-1.51,1.06.21,1.39,1.72,1.3,2.65-.24,2.47-2.37,3.75-4.64,4.23-1.45.31-1,2.83,1.34,3A6.62,6.62,0,0,0,389.86,11Zm45.26,51.92c5.09-2.61,7.73-8.72,5.06-15.7C437.79,41,432,36.66,426.24,36.39c-2.79-.14-.95,3.25,1.09,3.46,9.8,1.09,12.44,15.67,5.31,20.07C431,61,433.8,63.61,435.12,62.94ZM357,46.12c-5.3-6.9,3.23-19.63,12.8-17,2.57.72,3.51-2.11,1.08-2.9-5.3-1.73-12.13.08-16.46,5-4.86,5.5-4.4,12.21-.69,16.39C354.75,48.63,358.34,47.84,357,46.12Zm41.44-28.89a5.2,5.2,0,0,0,0,2.48c.55,1.7,2.66,2.28,3.15,1.45a3.63,3.63,0,0,0,.45-2.31C402,16.6,398.73,15.81,398.48,17.23Z"/><path class="cls-2" d="M150.39,215.5h-8.87l-3.07,7.93h-2l8.84-22.84h1.43l8.78,22.84h-2Zm-.7-1.85L146,204l-3.74,9.66Z"/><path class="cls-2" d="M176.11,200.65H178v21h15.27v1.88H176.11Z"/><path class="cls-2" d="M213.44,200.68h1.89v22.81h-1.89Z"/><path class="cls-2" d="M257,203.54l-8.57,8.35h-1.12l-8.41-8.38v20H237V200.65h1.7l9.18,9.15,9.35-9.15h1.64v22.87H257Z"/><path class="cls-2" d="M282.24,202.56v7.33h11.51v1.88H282.24v9.9h15.19v1.88H280.36V200.71h16.07v1.85Z"/><path class="cls-2" d="M317.75,200.65h1.7l14.76,19.47V200.65h1.91v22.87h-1.7L319.63,204v19.5h-1.88Z"/><path class="cls-2" d="M374.33,202.5h-8v21H364.4v-21h-7.84v-1.85h17.77Z"/><path class="cls-2" d="M414.82,205.91a12.63,12.63,0,0,1,.43,2.68q.09,1.49.09,3.48c0,1.32,0,2.47-.09,3.46a12.71,12.71,0,0,1-.43,2.71,6.88,6.88,0,0,1-2.73,3.95,5,5,0,0,1-1.41.77,15.17,15.17,0,0,1-1.75.5,20.54,20.54,0,0,1-4,.37,20.25,20.25,0,0,1-4-.37,15.17,15.17,0,0,1-1.75-.5,5.54,5.54,0,0,1-1.41-.74,7.18,7.18,0,0,1-2.73-4,12.71,12.71,0,0,1-.43-2.71c-.06-1-.09-2.14-.09-3.46s0-2.49.09-3.48a12.63,12.63,0,0,1,.43-2.68,7.15,7.15,0,0,1,2.73-4,5.59,5.59,0,0,1,1.41-.76,10.88,10.88,0,0,1,1.75-.49,15.25,15.25,0,0,1,1.95-.3c.66-.06,1.35-.09,2.06-.09s1.4,0,2.07.09a15.37,15.37,0,0,1,1.94.3,10.88,10.88,0,0,1,1.75.49,5.59,5.59,0,0,1,1.41.76A7.15,7.15,0,0,1,414.82,205.91ZM413.46,212c0-1.29,0-2.4-.1-3.31a11.78,11.78,0,0,0-.36-2.34,5.28,5.28,0,0,0-.73-1.62,6.28,6.28,0,0,0-1.34-1.35,3.93,3.93,0,0,0-.95-.49,12.09,12.09,0,0,0-1.42-.43,18.39,18.39,0,0,0-3.58-.33h-.12a18.39,18.39,0,0,0-3.58.33,12.09,12.09,0,0,0-1.42.43,3.93,3.93,0,0,0-.95.49,6.28,6.28,0,0,0-1.34,1.35,5.28,5.28,0,0,0-.73,1.62,11.78,11.78,0,0,0-.36,2.34c-.07.91-.1,2-.1,3.28v.09c0,1.3,0,2.4.1,3.31a11.66,11.66,0,0,0,.36,2.34,5.46,5.46,0,0,0,.73,1.63,6.77,6.77,0,0,0,1.34,1.35,5.8,5.8,0,0,0,2.37.88,13.34,13.34,0,0,0,1.71.27c.62.06,1.24.09,1.87.09H405c.63,0,1.25,0,1.87-.09a13.34,13.34,0,0,0,1.71-.27,5.8,5.8,0,0,0,2.37-.88,6.77,6.77,0,0,0,1.34-1.35,5.46,5.46,0,0,0,.73-1.63,11.66,11.66,0,0,0,.36-2.34c.07-.91.1-2,.1-3.31V212Z"/><path class="cls-2" d="M436.15,223.55l.12-1.82,2.58.15,2.31.11c.81,0,1.52,0,2.12,0s1.12,0,1.52-.06.75-.05,1-.09a5.5,5.5,0,0,0,.75-.15,6.24,6.24,0,0,0,.68-.24,6.39,6.39,0,0,0,.72-.38,2.71,2.71,0,0,0,.44-.35,2.08,2.08,0,0,0,.32-.4,4.69,4.69,0,0,1,.35-.48,2.83,2.83,0,0,0,.42-.88c.08-.31.14-.59.18-.85a3.24,3.24,0,0,0,0-.88,4.8,4.8,0,0,0-.13-1.14,3.69,3.69,0,0,0-.47-1.08,4.41,4.41,0,0,0-.95-1,5.33,5.33,0,0,0-1.64-.85l-3-1L440,211a6.36,6.36,0,0,1-1.15-.5,6.17,6.17,0,0,1-1.34-1.08,5.12,5.12,0,0,1-1.14-1.72,4.22,4.22,0,0,1-.32-1.83c0-.31.05-.62.08-.93a4.37,4.37,0,0,1,.21-1,4.07,4.07,0,0,1,.5-1,7,7,0,0,1,.88-1,4.66,4.66,0,0,1,1.22-.76,7.3,7.3,0,0,1,1.22-.41,5.26,5.26,0,0,1,1-.15l.62,0h6.84v1.82h-6.81a4.21,4.21,0,0,0-2.82.91,3.18,3.18,0,0,0-.74,1,4,4,0,0,0-.32,1.51,2.82,2.82,0,0,0,.13.89,4.69,4.69,0,0,0,.31.7c.11.19.22.35.32.49l.18.22s.22.2.54.46a3.52,3.52,0,0,0,1.19.61c.22.08.6.21,1.14.38l1.76.57,1.94.66c.66.22,1.24.42,1.72.6a8.24,8.24,0,0,1,2.14,1.11,5.93,5.93,0,0,1,1.39,1.45,5.45,5.45,0,0,1,.74,1.71,5.53,5.53,0,0,1,.2,1.51c0,.38-.07.9-.14,1.54a4.9,4.9,0,0,1-.71,2c-.21.3-.4.57-.57.79a4.76,4.76,0,0,1-.57.62,6.12,6.12,0,0,1-.7.53,7.16,7.16,0,0,1-.93.49,5.26,5.26,0,0,1-1.14.38,10.66,10.66,0,0,1-1.24.2c-.42,0-.83.06-1.23.07l-1.1,0c-.34,0-.9,0-1.68,0l-2.39-.1Z"/></g></g></svg>